<?xml version="1.0" encoding="UTF-8"?>
<svg xmlns="http://www.w3.org/2000/svg"
     xmlns:xlink="http://www.w3.org/1999/xlink"
     version="1.2"
     width="141.42mm" height="100mm" viewBox="0 0 141.42 100"
     stroke="none"
     fill="#000000"
     stroke-width="0.3"
     font-size="3.88"
>
<defs>
  <marker id="arrow" markerWidth="15" markerHeight="7" refX="5" refY="3.5" orient="auto" markerUnits="strokeWidth">
    <path d="M0,0 L15,3.5 L0,7 z" stroke="context-stroke" fill="context-stroke"/>
  </marker>
</defs>
<g stroke="#808080" id="img-6482108b-1">
  <g transform="translate(49.62,3.61)">
    <path fill="none" d="M-41.35,-0 L41.35,0 " class="primitive"/>
  </g>
  <g transform="translate(8.27,21.66)">
    <path fill="none" d="M-0,-18.05 L0,18.05 " class="primitive"/>
  </g>
  <g transform="translate(15.3,7.04)">
    <path fill="none" d="M-7.03,-3.43 L7.03,3.43 " class="primitive"/>
  </g>
  <g transform="translate(98,7.04)">
    <path fill="none" d="M-7.03,-3.43 L7.03,3.43 " class="primitive"/>
  </g>
  <g transform="translate(90.97,7.04)">
    <path fill="none" d="M-0,-3.43 L0,3.43 " class="primitive"/>
  </g>
  <g transform="translate(8.27,57.76)">
    <path fill="none" d="M-0,-18.05 L0,18.05 " class="primitive"/>
  </g>
  <g transform="translate(15.3,43.14)">
    <path fill="none" d="M-7.03,-3.43 L7.03,3.43 " class="primitive"/>
  </g>
  <g transform="translate(15.3,39.71)">
    <path fill="none" d="M-7.03,-0 L7.03,0 " class="primitive"/>
  </g>
  <g transform="translate(98,43.14)">
    <path fill="none" d="M-7.03,-3.43 L7.03,3.43 " class="primitive"/>
  </g>
  <g transform="translate(90.97,43.14)">
    <path fill="none" d="M-0,-3.43 L0,3.43 " class="primitive"/>
  </g>
  <g transform="translate(90.97,31.95)">
    <path fill="none" d="M0,7.76 L-0,-7.76 " class="primitive"/>
  </g>
  <g transform="translate(70.71,39.71)">
    <path fill="none" d="M20.26,0 L-20.26,-0 " class="primitive"/>
  </g>
  <g transform="translate(15.3,79.24)">
    <path fill="none" d="M-7.03,-3.43 L7.03,3.43 " class="primitive"/>
  </g>
  <g transform="translate(15.3,75.81)">
    <path fill="none" d="M-7.03,-0 L7.03,0 " class="primitive"/>
  </g>
  <g transform="translate(98,79.24)">
    <path fill="none" d="M-7.03,-3.43 L7.03,3.43 " class="primitive"/>
  </g>
  <g transform="translate(90.97,68.05)">
    <path fill="none" d="M0,7.76 L-0,-7.76 " class="primitive"/>
  </g>
  <g transform="translate(70.71,75.81)">
    <path fill="none" d="M20.26,0 L-20.26,-0 " class="primitive"/>
  </g>
  <g transform="translate(29.36,13.9)">
    <path fill="none" d="M-7.03,-3.43 L7.03,3.43 " class="primitive"/>
  </g>
  <g transform="translate(56.65,10.47)">
    <path fill="none" d="M-34.32,-0 L34.32,0 " class="primitive"/>
  </g>
  <g transform="translate(22.33,25.09)">
    <path fill="none" d="M-0,-14.62 L0,14.62 " class="primitive"/>
  </g>
  <g transform="translate(112.06,13.9)">
    <path fill="none" d="M-7.03,-3.43 L7.03,3.43 " class="primitive"/>
  </g>
  <g transform="translate(98,10.47)">
    <path fill="none" d="M7.03,0 L-7.03,-0 " class="primitive"/>
  </g>
  <g transform="translate(105.03,13.9)">
    <path fill="none" d="M-0,-3.43 L0,3.43 " class="primitive"/>
  </g>
  <g transform="translate(29.36,50)">
    <path fill="none" d="M-7.03,-3.43 L7.03,3.43 " class="primitive"/>
  </g>
  <g transform="translate(22.33,43.14)">
    <path fill="none" d="M0,3.43 L-0,-3.43 " class="primitive"/>
  </g>
  <g transform="translate(22.33,61.19)">
    <path fill="none" d="M-0,-14.62 L0,14.62 " class="primitive"/>
  </g>
  <g transform="translate(29.36,46.57)">
    <path fill="none" d="M-7.03,-0 L7.03,0 " class="primitive"/>
  </g>
  <g transform="translate(112.06,50)">
    <path fill="none" d="M-7.03,-3.43 L7.03,3.43 " class="primitive"/>
  </g>
  <g transform="translate(98,46.57)">
    <path fill="none" d="M7.03,0 L-7.03,-0 " class="primitive"/>
  </g>
  <g transform="translate(105.03,35.38)">
    <path fill="none" d="M0,11.19 L-0,-11.19 " class="primitive"/>
  </g>
  <g transform="translate(105.03,50)">
    <path fill="none" d="M-0,-3.43 L0,3.43 " class="primitive"/>
  </g>
  <g transform="translate(29.36,86.1)">
    <path fill="none" d="M-7.03,-3.43 L7.03,3.43 " class="primitive"/>
  </g>
  <g transform="translate(22.33,79.24)">
    <path fill="none" d="M0,3.43 L-0,-3.43 " class="primitive"/>
  </g>
  <g transform="translate(29.36,82.67)">
    <path fill="none" d="M-7.03,-0 L7.03,0 " class="primitive"/>
  </g>
  <g transform="translate(112.06,86.1)">
    <path fill="none" d="M-7.03,-3.43 L7.03,3.43 " class="primitive"/>
  </g>
  <g transform="translate(105.03,71.48)">
    <path fill="none" d="M0,11.19 L-0,-11.19 " class="primitive"/>
  </g>
  <g transform="translate(77.74,82.67)">
    <path fill="none" d="M27.29,0 L-27.29,-0 " class="primitive"/>
  </g>
  <g transform="translate(43.42,20.76)">
    <path fill="none" d="M-7.03,-3.43 L7.03,3.43 " class="primitive"/>
  </g>
  <g transform="translate(63.68,17.33)">
    <path fill="none" d="M-27.29,-0 L27.29,0 " class="primitive"/>
  </g>
  <g transform="translate(36.39,28.52)">
    <path fill="none" d="M-0,-11.19 L0,11.19 " class="primitive"/>
  </g>
  <g transform="translate(126.12,20.76)">
    <path fill="none" d="M-7.03,-3.43 L7.03,3.43 " class="primitive"/>
  </g>
  <g transform="translate(112.06,17.33)">
    <path fill="none" d="M7.03,0 L-7.03,-0 " class="primitive"/>
  </g>
  <g transform="translate(119.09,20.76)">
    <path fill="none" d="M-0,-3.43 L0,3.43 " class="primitive"/>
  </g>
  <g transform="translate(43.42,56.86)">
    <path fill="none" d="M-7.03,-3.43 L7.03,3.43 " class="primitive"/>
  </g>
  <g transform="translate(36.39,64.62)">
    <path fill="none" d="M-0,-11.19 L0,11.19 " class="primitive"/>
  </g>
  <g transform="translate(36.39,50)">
    <path fill="none" d="M0,3.43 L-0,-3.43 " class="primitive"/>
  </g>
  <g transform="translate(43.42,53.43)">
    <path fill="none" d="M-7.03,-0 L7.03,0 " class="primitive"/>
  </g>
  <g transform="translate(126.12,56.86)">
    <path fill="none" d="M-7.03,-3.43 L7.03,3.43 " class="primitive"/>
  </g>
  <g transform="translate(112.06,53.43)">
    <path fill="none" d="M7.03,0 L-7.03,-0 " class="primitive"/>
  </g>
  <g transform="translate(119.09,38.81)">
    <path fill="none" d="M0,14.62 L-0,-14.62 " class="primitive"/>
  </g>
  <g transform="translate(119.09,56.86)">
    <path fill="none" d="M-0,-3.43 L0,3.43 " class="primitive"/>
  </g>
  <g transform="translate(43.42,92.96)">
    <path fill="none" d="M-7.03,-3.43 L7.03,3.43 " class="primitive"/>
  </g>
  <g transform="translate(36.39,86.1)">
    <path fill="none" d="M0,3.43 L-0,-3.43 " class="primitive"/>
  </g>
  <g transform="translate(43.42,89.53)">
    <path fill="none" d="M-7.03,-0 L7.03,0 " class="primitive"/>
  </g>
  <g transform="translate(126.12,92.96)">
    <path fill="none" d="M-7.03,-3.43 L7.03,3.43 " class="primitive"/>
  </g>
  <g transform="translate(119.09,74.91)">
    <path fill="none" d="M0,14.62 L-0,-14.62 " class="primitive"/>
  </g>
  <g transform="translate(84.77,89.53)">
    <path fill="none" d="M34.32,0 L-34.32,-0 " class="primitive"/>
  </g>
  <g transform="translate(70.71,24.19)">
    <path fill="none" d="M-20.26,-0 L20.26,0 " class="primitive"/>
  </g>
  <g transform="translate(50.45,31.95)">
    <path fill="none" d="M-0,-7.76 L0,7.76 " class="primitive"/>
  </g>
  <g transform="translate(133.15,42.24)">
    <path fill="none" d="M-0,-18.05 L0,18.05 " class="primitive"/>
  </g>
  <g transform="translate(126.12,24.19)">
    <path fill="none" d="M7.03,0 L-7.03,-0 " class="primitive"/>
  </g>
  <g transform="translate(70.71,60.29)">
    <path fill="none" d="M-20.26,-0 L20.26,0 " class="primitive"/>
  </g>
  <g transform="translate(50.45,68.05)">
    <path fill="none" d="M-0,-7.76 L0,7.76 " class="primitive"/>
  </g>
  <g transform="translate(50.45,56.86)">
    <path fill="none" d="M0,3.43 L-0,-3.43 " class="primitive"/>
  </g>
  <g transform="translate(133.15,78.34)">
    <path fill="none" d="M-0,-18.05 L0,18.05 " class="primitive"/>
  </g>
  <g transform="translate(126.12,60.29)">
    <path fill="none" d="M7.03,0 L-7.03,-0 " class="primitive"/>
  </g>
  <g transform="translate(91.8,96.39)">
    <path fill="none" d="M-41.35,-0 L41.35,0 " class="primitive"/>
  </g>
  <g transform="translate(50.45,92.96)">
    <path fill="none" d="M0,3.43 L-0,-3.43 " class="primitive"/>
  </g>
  <g transform="translate(90.97,13.9)">
    <path fill="none" d="M-0,-3.43 L0,3.43 " class="primitive"/>
  </g>
  <g transform="translate(29.36,39.71)">
    <path fill="none" d="M-7.03,-0 L7.03,0 " class="primitive"/>
  </g>
  <g transform="translate(90.97,50)">
    <path fill="none" d="M-0,-3.43 L0,3.43 " class="primitive"/>
  </g>
  <g transform="translate(70.71,46.57)">
    <path fill="none" d="M20.26,0 L-20.26,-0 " class="primitive"/>
  </g>
  <g transform="translate(29.36,75.81)">
    <path fill="none" d="M-7.03,-0 L7.03,0 " class="primitive"/>
  </g>
  <g transform="translate(98,17.33)">
    <path fill="none" d="M-7.03,-0 L7.03,0 " class="primitive"/>
  </g>
  <g transform="translate(90.97,20.76)">
    <path fill="none" d="M-0,-3.43 L0,3.43 " class="primitive"/>
  </g>
  <g transform="translate(43.42,39.71)">
    <path fill="none" d="M-7.03,-0 L7.03,0 " class="primitive"/>
  </g>
  <g transform="translate(36.39,43.14)">
    <path fill="none" d="M-0,-3.43 L0,3.43 " class="primitive"/>
  </g>
  <g transform="translate(105.03,20.76)">
    <path fill="none" d="M0,3.43 L-0,-3.43 " class="primitive"/>
  </g>
  <g transform="translate(98,24.19)">
    <path fill="none" d="M7.03,0 L-7.03,-0 " class="primitive"/>
  </g>
  <g transform="translate(112.06,24.19)">
    <path fill="none" d="M-7.03,-0 L7.03,0 " class="primitive"/>
  </g>
  <g transform="translate(98,53.43)">
    <path fill="none" d="M-7.03,-0 L7.03,0 " class="primitive"/>
  </g>
  <g transform="translate(90.97,56.86)">
    <path fill="none" d="M-0,-3.43 L0,3.43 " class="primitive"/>
  </g>
  <g transform="translate(70.71,53.43)">
    <path fill="none" d="M20.26,0 L-20.26,-0 " class="primitive"/>
  </g>
  <g transform="translate(36.39,79.24)">
    <path fill="none" d="M-0,-3.43 L0,3.43 " class="primitive"/>
  </g>
  <g transform="translate(43.42,75.81)">
    <path fill="none" d="M-7.03,-0 L7.03,0 " class="primitive"/>
  </g>
  <g transform="translate(105.03,56.86)">
    <path fill="none" d="M0,3.43 L-0,-3.43 " class="primitive"/>
  </g>
  <g transform="translate(98,60.29)">
    <path fill="none" d="M7.03,0 L-7.03,-0 " class="primitive"/>
  </g>
  <g transform="translate(112.06,60.29)">
    <path fill="none" d="M-7.03,-0 L7.03,0 " class="primitive"/>
  </g>
  <g transform="translate(43.42,82.67)">
    <path fill="none" d="M7.03,0 L-7.03,-0 " class="primitive"/>
  </g>
  <g transform="translate(50.45,79.24)">
    <path fill="none" d="M0,3.43 L-0,-3.43 " class="primitive"/>
  </g>
  <g transform="translate(50.45,86.1)">
    <path fill="none" d="M-0,-3.43 L0,3.43 " class="primitive"/>
  </g>
  <g transform="translate(50.45,43.14)">
    <path fill="none" d="M-0,-3.43 L0,3.43 " class="primitive"/>
  </g>
  <g transform="translate(43.42,46.57)">
    <path fill="none" d="M-7.03,-0 L7.03,0 " class="primitive"/>
  </g>
  <g transform="translate(50.45,50)">
    <path fill="none" d="M-0,-3.43 L0,3.43 " class="primitive"/>
  </g>
</g>
<g fill="#90EE90" stroke="#90EE90" id="img-6482108b-2">
  <g transform="translate(90.97,10.47)">
    <path d="M-0.71,-0.5 L0.71,-0.5 0.71,0.5 -0.71,0.5  z" class="primitive"/>
  </g>
  <g transform="translate(22.33,39.71)">
    <path d="M-0.71,-0.5 L0.71,-0.5 0.71,0.5 -0.71,0.5  z" class="primitive"/>
  </g>
  <g transform="translate(90.97,46.57)">
    <path d="M-0.71,-0.5 L0.71,-0.5 0.71,0.5 -0.71,0.5  z" class="primitive"/>
  </g>
  <g transform="translate(22.33,75.81)">
    <path d="M-0.71,-0.5 L0.71,-0.5 0.71,0.5 -0.71,0.5  z" class="primitive"/>
  </g>
  <g transform="translate(90.97,17.33)">
    <path d="M-0.71,-0.5 L0.71,-0.5 0.71,0.5 -0.71,0.5  z" class="primitive"/>
  </g>
  <g transform="translate(36.39,39.71)">
    <path d="M-0.71,-0.5 L0.71,-0.5 0.71,0.5 -0.71,0.5  z" class="primitive"/>
  </g>
  <g transform="translate(105.03,24.19)">
    <path d="M-0.71,-0.5 L0.71,-0.5 0.71,0.5 -0.71,0.5  z" class="primitive"/>
  </g>
  <g transform="translate(105.03,17.33)">
    <path d="M-0.71,-0.5 L0.71,-0.5 0.71,0.5 -0.71,0.5  z" class="primitive"/>
  </g>
  <g transform="translate(90.97,53.43)">
    <path d="M-0.71,-0.5 L0.71,-0.5 0.71,0.5 -0.71,0.5  z" class="primitive"/>
  </g>
  <g transform="translate(36.39,75.81)">
    <path d="M-0.71,-0.5 L0.71,-0.5 0.71,0.5 -0.71,0.5  z" class="primitive"/>
  </g>
  <g transform="translate(105.03,60.29)">
    <path d="M-0.71,-0.5 L0.71,-0.5 0.71,0.5 -0.71,0.5  z" class="primitive"/>
  </g>
  <g transform="translate(105.03,53.43)">
    <path d="M-0.71,-0.5 L0.71,-0.5 0.71,0.5 -0.71,0.5  z" class="primitive"/>
  </g>
  <g transform="translate(50.45,82.67)">
    <path d="M-0.71,-0.5 L0.71,-0.5 0.71,0.5 -0.71,0.5  z" class="primitive"/>
  </g>
  <g transform="translate(36.39,82.67)">
    <path d="M-0.71,-0.5 L0.71,-0.5 0.71,0.5 -0.71,0.5  z" class="primitive"/>
  </g>
  <g transform="translate(90.97,24.19)">
    <path d="M-0.71,-0.5 L0.71,-0.5 0.71,0.5 -0.71,0.5  z" class="primitive"/>
  </g>
  <g transform="translate(50.45,39.71)">
    <path d="M-0.71,-0.5 L0.71,-0.5 0.71,0.5 -0.71,0.5  z" class="primitive"/>
  </g>
  <g transform="translate(119.09,24.19)">
    <path d="M-0.71,-0.5 L0.71,-0.5 0.71,0.5 -0.71,0.5  z" class="primitive"/>
  </g>
  <g transform="translate(90.97,60.29)">
    <path d="M-0.71,-0.5 L0.71,-0.5 0.71,0.5 -0.71,0.5  z" class="primitive"/>
  </g>
  <g transform="translate(50.45,75.81)">
    <path d="M-0.71,-0.5 L0.71,-0.5 0.71,0.5 -0.71,0.5  z" class="primitive"/>
  </g>
  <g transform="translate(119.09,60.29)">
    <path d="M-0.71,-0.5 L0.71,-0.5 0.71,0.5 -0.71,0.5  z" class="primitive"/>
  </g>
  <g transform="translate(50.45,89.53)">
    <path d="M-0.71,-0.5 L0.71,-0.5 0.71,0.5 -0.71,0.5  z" class="primitive"/>
  </g>
  <g transform="translate(36.39,46.57)">
    <path d="M-0.71,-0.5 L0.71,-0.5 0.71,0.5 -0.71,0.5  z" class="primitive"/>
  </g>
  <g transform="translate(50.45,46.57)">
    <path d="M-0.71,-0.5 L0.71,-0.5 0.71,0.5 -0.71,0.5  z" class="primitive"/>
  </g>
  <g transform="translate(50.45,53.43)">
    <path d="M-0.71,-0.5 L0.71,-0.5 0.71,0.5 -0.71,0.5  z" class="primitive"/>
  </g>
</g>
<g fill="#ADD8E6" stroke="#ADD8E6" id="img-6482108b-3">
  <g transform="translate(8.27,3.61)">
    <circle cx="0" cy="0" r="1.56" class="primitive"/>
  </g>
  <g transform="translate(90.97,3.61)">
    <circle cx="0" cy="0" r="1.56" class="primitive"/>
  </g>
  <g transform="translate(8.27,39.71)">
    <circle cx="0" cy="0" r="1.56" class="primitive"/>
  </g>
  <g transform="translate(90.97,39.71)">
    <circle cx="0" cy="0" r="1.56" class="primitive"/>
  </g>
  <g transform="translate(8.27,75.81)">
    <circle cx="0" cy="0" r="1.56" class="primitive"/>
  </g>
  <g transform="translate(90.97,75.81)">
    <circle cx="0" cy="0" r="1.56" class="primitive"/>
  </g>
  <g transform="translate(22.33,10.47)">
    <circle cx="0" cy="0" r="1.56" class="primitive"/>
  </g>
  <g transform="translate(105.03,10.47)">
    <circle cx="0" cy="0" r="1.56" class="primitive"/>
  </g>
  <g transform="translate(22.33,46.57)">
    <circle cx="0" cy="0" r="1.56" class="primitive"/>
  </g>
  <g transform="translate(105.03,46.57)">
    <circle cx="0" cy="0" r="1.56" class="primitive"/>
  </g>
  <g transform="translate(22.33,82.67)">
    <circle cx="0" cy="0" r="1.56" class="primitive"/>
  </g>
  <g transform="translate(105.03,82.67)">
    <circle cx="0" cy="0" r="1.56" class="primitive"/>
  </g>
  <g transform="translate(36.39,17.33)">
    <circle cx="0" cy="0" r="1.56" class="primitive"/>
  </g>
  <g transform="translate(119.09,17.33)">
    <circle cx="0" cy="0" r="1.56" class="primitive"/>
  </g>
  <g transform="translate(36.39,53.43)">
    <circle cx="0" cy="0" r="1.56" class="primitive"/>
  </g>
  <g transform="translate(119.09,53.43)">
    <circle cx="0" cy="0" r="1.56" class="primitive"/>
  </g>
  <g transform="translate(36.39,89.53)">
    <circle cx="0" cy="0" r="1.56" class="primitive"/>
  </g>
  <g transform="translate(119.09,89.53)">
    <circle cx="0" cy="0" r="1.56" class="primitive"/>
  </g>
  <g transform="translate(50.45,24.19)">
    <circle cx="0" cy="0" r="1.56" class="primitive"/>
  </g>
  <g transform="translate(133.15,24.19)">
    <circle cx="0" cy="0" r="1.56" class="primitive"/>
  </g>
  <g transform="translate(50.45,60.29)">
    <circle cx="0" cy="0" r="1.56" class="primitive"/>
  </g>
  <g transform="translate(133.15,60.29)">
    <circle cx="0" cy="0" r="1.56" class="primitive"/>
  </g>
  <g transform="translate(50.45,96.39)">
    <circle cx="0" cy="0" r="1.56" class="primitive"/>
  </g>
  <g transform="translate(133.15,96.39)">
    <circle cx="0" cy="0" r="1.56" class="primitive"/>
  </g>
</g>
<g transform="translate(8.27,3.61)">
  <g class="primitive">
    <text text-anchor="middle" dy="0.35em">v1</text>
  </g>
</g>
<g transform="translate(90.97,3.61)">
  <g class="primitive">
    <text text-anchor="middle" dy="0.35em">v2</text>
  </g>
</g>
<g transform="translate(8.27,39.71)">
  <g class="primitive">
    <text text-anchor="middle" dy="0.35em">v3</text>
  </g>
</g>
<g transform="translate(90.97,39.71)">
  <g class="primitive">
    <text text-anchor="middle" dy="0.35em">v4</text>
  </g>
</g>
<g transform="translate(8.27,75.81)">
  <g class="primitive">
    <text text-anchor="middle" dy="0.35em">v5</text>
  </g>
</g>
<g transform="translate(90.97,75.81)">
  <g class="primitive">
    <text text-anchor="middle" dy="0.35em">v6</text>
  </g>
</g>
<g transform="translate(22.33,10.47)">
  <g class="primitive">
    <text text-anchor="middle" dy="0.35em">v7</text>
  </g>
</g>
<g transform="translate(105.03,10.47)">
  <g class="primitive">
    <text text-anchor="middle" dy="0.35em">v8</text>
  </g>
</g>
<g transform="translate(22.33,46.57)">
  <g class="primitive">
    <text text-anchor="middle" dy="0.35em">v9</text>
  </g>
</g>
<g transform="translate(105.03,46.57)">
  <g class="primitive">
    <text text-anchor="middle" dy="0.35em">v10</text>
  </g>
</g>
<g transform="translate(22.33,82.67)">
  <g class="primitive">
    <text text-anchor="middle" dy="0.35em">v11</text>
  </g>
</g>
<g transform="translate(105.03,82.67)">
  <g class="primitive">
    <text text-anchor="middle" dy="0.35em">v12</text>
  </g>
</g>
<g transform="translate(36.39,17.33)">
  <g class="primitive">
    <text text-anchor="middle" dy="0.35em">v13</text>
  </g>
</g>
<g transform="translate(119.09,17.33)">
  <g class="primitive">
    <text text-anchor="middle" dy="0.35em">v14</text>
  </g>
</g>
<g transform="translate(36.39,53.43)">
  <g class="primitive">
    <text text-anchor="middle" dy="0.35em">v15</text>
  </g>
</g>
<g transform="translate(119.09,53.43)">
  <g class="primitive">
    <text text-anchor="middle" dy="0.35em">v16</text>
  </g>
</g>
<g transform="translate(36.39,89.53)">
  <g class="primitive">
    <text text-anchor="middle" dy="0.35em">v17</text>
  </g>
</g>
<g transform="translate(119.09,89.53)">
  <g class="primitive">
    <text text-anchor="middle" dy="0.35em">v18</text>
  </g>
</g>
<g transform="translate(50.45,24.19)">
  <g class="primitive">
    <text text-anchor="middle" dy="0.35em">v19</text>
  </g>
</g>
<g transform="translate(133.15,24.19)">
  <g class="primitive">
    <text text-anchor="middle" dy="0.35em">v20</text>
  </g>
</g>
<g transform="translate(50.45,60.29)">
  <g class="primitive">
    <text text-anchor="middle" dy="0.35em">v21</text>
  </g>
</g>
<g transform="translate(133.15,60.29)">
  <g class="primitive">
    <text text-anchor="middle" dy="0.35em">v22</text>
  </g>
</g>
<g transform="translate(50.45,96.39)">
  <g class="primitive">
    <text text-anchor="middle" dy="0.35em">v23</text>
  </g>
</g>
<g transform="translate(133.15,96.39)">
  <g class="primitive">
    <text text-anchor="middle" dy="0.35em">v24</text>
  </g>
</g>
<g transform="translate(49.62,3.61)">
  <g class="primitive">
    <text text-anchor="middle" dy="0.35em">b1</text>
  </g>
</g>
<g transform="translate(8.27,21.66)">
  <g class="primitive">
    <text text-anchor="middle" dy="0.35em">b2</text>
  </g>
</g>
<g transform="translate(15.3,7.04)">
  <g class="primitive">
    <text text-anchor="middle" dy="0.35em">b3</text>
  </g>
</g>
<g transform="translate(98,7.04)">
  <g class="primitive">
    <text text-anchor="middle" dy="0.35em">b4</text>
  </g>
</g>
<g transform="translate(90.97,7.04)">
  <g class="primitive">
    <text text-anchor="middle" dy="0.35em">b5</text>
  </g>
</g>
<g transform="translate(8.27,57.76)">
  <g class="primitive">
    <text text-anchor="middle" dy="0.35em">b6</text>
  </g>
</g>
<g transform="translate(15.3,43.14)">
  <g class="primitive">
    <text text-anchor="middle" dy="0.35em">b7</text>
  </g>
</g>
<g transform="translate(15.3,39.71)">
  <g class="primitive">
    <text text-anchor="middle" dy="0.35em">b8</text>
  </g>
</g>
<g transform="translate(98,43.14)">
  <g class="primitive">
    <text text-anchor="middle" dy="0.35em">b9</text>
  </g>
</g>
<g transform="translate(90.97,43.14)">
  <g class="primitive">
    <text text-anchor="middle" dy="0.35em">b10</text>
  </g>
</g>
<g transform="translate(90.97,31.95)">
  <g class="primitive">
    <text text-anchor="middle" dy="0.35em">b11</text>
  </g>
</g>
<g transform="translate(70.71,39.71)">
  <g class="primitive">
    <text text-anchor="middle" dy="0.35em">b12</text>
  </g>
</g>
<g transform="translate(15.3,79.24)">
  <g class="primitive">
    <text text-anchor="middle" dy="0.35em">b13</text>
  </g>
</g>
<g transform="translate(15.3,75.81)">
  <g class="primitive">
    <text text-anchor="middle" dy="0.35em">b14</text>
  </g>
</g>
<g transform="translate(98,79.24)">
  <g class="primitive">
    <text text-anchor="middle" dy="0.35em">b15</text>
  </g>
</g>
<g transform="translate(90.97,68.05)">
  <g class="primitive">
    <text text-anchor="middle" dy="0.35em">b16</text>
  </g>
</g>
<g transform="translate(70.71,75.81)">
  <g class="primitive">
    <text text-anchor="middle" dy="0.35em">b17</text>
  </g>
</g>
<g transform="translate(29.36,13.9)">
  <g class="primitive">
    <text text-anchor="middle" dy="0.35em">b18</text>
  </g>
</g>
<g transform="translate(56.65,10.47)">
  <g class="primitive">
    <text text-anchor="middle" dy="0.35em">b19</text>
  </g>
</g>
<g transform="translate(22.33,25.09)">
  <g class="primitive">
    <text text-anchor="middle" dy="0.35em">b20</text>
  </g>
</g>
<g transform="translate(112.06,13.9)">
  <g class="primitive">
    <text text-anchor="middle" dy="0.35em">b21</text>
  </g>
</g>
<g transform="translate(98,10.47)">
  <g class="primitive">
    <text text-anchor="middle" dy="0.35em">b22</text>
  </g>
</g>
<g transform="translate(105.03,13.9)">
  <g class="primitive">
    <text text-anchor="middle" dy="0.35em">b23</text>
  </g>
</g>
<g transform="translate(29.36,50)">
  <g class="primitive">
    <text text-anchor="middle" dy="0.35em">b24</text>
  </g>
</g>
<g transform="translate(22.33,43.14)">
  <g class="primitive">
    <text text-anchor="middle" dy="0.35em">b25</text>
  </g>
</g>
<g transform="translate(22.33,61.19)">
  <g class="primitive">
    <text text-anchor="middle" dy="0.35em">b26</text>
  </g>
</g>
<g transform="translate(29.36,46.57)">
  <g class="primitive">
    <text text-anchor="middle" dy="0.35em">b27</text>
  </g>
</g>
<g transform="translate(112.06,50)">
  <g class="primitive">
    <text text-anchor="middle" dy="0.35em">b28</text>
  </g>
</g>
<g transform="translate(98,46.57)">
  <g class="primitive">
    <text text-anchor="middle" dy="0.35em">b29</text>
  </g>
</g>
<g transform="translate(105.03,35.38)">
  <g class="primitive">
    <text text-anchor="middle" dy="0.35em">b30</text>
  </g>
</g>
<g transform="translate(105.03,50)">
  <g class="primitive">
    <text text-anchor="middle" dy="0.35em">b31</text>
  </g>
</g>
<g transform="translate(29.36,86.1)">
  <g class="primitive">
    <text text-anchor="middle" dy="0.35em">b32</text>
  </g>
</g>
<g transform="translate(22.33,79.24)">
  <g class="primitive">
    <text text-anchor="middle" dy="0.35em">b33</text>
  </g>
</g>
<g transform="translate(29.36,82.67)">
  <g class="primitive">
    <text text-anchor="middle" dy="0.35em">b34</text>
  </g>
</g>
<g transform="translate(112.06,86.1)">
  <g class="primitive">
    <text text-anchor="middle" dy="0.35em">b35</text>
  </g>
</g>
<g transform="translate(105.03,71.48)">
  <g class="primitive">
    <text text-anchor="middle" dy="0.35em">b36</text>
  </g>
</g>
<g transform="translate(77.74,82.67)">
  <g class="primitive">
    <text text-anchor="middle" dy="0.35em">b37</text>
  </g>
</g>
<g transform="translate(43.42,20.76)">
  <g class="primitive">
    <text text-anchor="middle" dy="0.35em">b38</text>
  </g>
</g>
<g transform="translate(63.68,17.33)">
  <g class="primitive">
    <text text-anchor="middle" dy="0.35em">b39</text>
  </g>
</g>
<g transform="translate(36.39,28.52)">
  <g class="primitive">
    <text text-anchor="middle" dy="0.35em">b40</text>
  </g>
</g>
<g transform="translate(126.12,20.76)">
  <g class="primitive">
    <text text-anchor="middle" dy="0.35em">b41</text>
  </g>
</g>
<g transform="translate(112.06,17.33)">
  <g class="primitive">
    <text text-anchor="middle" dy="0.35em">b42</text>
  </g>
</g>
<g transform="translate(119.09,20.76)">
  <g class="primitive">
    <text text-anchor="middle" dy="0.35em">b43</text>
  </g>
</g>
<g transform="translate(43.42,56.86)">
  <g class="primitive">
    <text text-anchor="middle" dy="0.35em">b44</text>
  </g>
</g>
<g transform="translate(36.39,64.62)">
  <g class="primitive">
    <text text-anchor="middle" dy="0.35em">b45</text>
  </g>
</g>
<g transform="translate(36.39,50)">
  <g class="primitive">
    <text text-anchor="middle" dy="0.35em">b46</text>
  </g>
</g>
<g transform="translate(43.42,53.43)">
  <g class="primitive">
    <text text-anchor="middle" dy="0.35em">b47</text>
  </g>
</g>
<g transform="translate(126.12,56.86)">
  <g class="primitive">
    <text text-anchor="middle" dy="0.35em">b48</text>
  </g>
</g>
<g transform="translate(112.06,53.43)">
  <g class="primitive">
    <text text-anchor="middle" dy="0.35em">b49</text>
  </g>
</g>
<g transform="translate(119.09,38.81)">
  <g class="primitive">
    <text text-anchor="middle" dy="0.35em">b50</text>
  </g>
</g>
<g transform="translate(119.09,56.86)">
  <g class="primitive">
    <text text-anchor="middle" dy="0.35em">b51</text>
  </g>
</g>
<g transform="translate(43.42,92.96)">
  <g class="primitive">
    <text text-anchor="middle" dy="0.35em">b52</text>
  </g>
</g>
<g transform="translate(36.39,86.1)">
  <g class="primitive">
    <text text-anchor="middle" dy="0.35em">b53</text>
  </g>
</g>
<g transform="translate(43.42,89.53)">
  <g class="primitive">
    <text text-anchor="middle" dy="0.35em">b54</text>
  </g>
</g>
<g transform="translate(126.12,92.96)">
  <g class="primitive">
    <text text-anchor="middle" dy="0.35em">b55</text>
  </g>
</g>
<g transform="translate(119.09,74.91)">
  <g class="primitive">
    <text text-anchor="middle" dy="0.35em">b56</text>
  </g>
</g>
<g transform="translate(84.77,89.53)">
  <g class="primitive">
    <text text-anchor="middle" dy="0.35em">b57</text>
  </g>
</g>
<g transform="translate(70.71,24.19)">
  <g class="primitive">
    <text text-anchor="middle" dy="0.35em">b58</text>
  </g>
</g>
<g transform="translate(50.45,31.95)">
  <g class="primitive">
    <text text-anchor="middle" dy="0.35em">b59</text>
  </g>
</g>
<g transform="translate(133.15,42.24)">
  <g class="primitive">
    <text text-anchor="middle" dy="0.35em">b60</text>
  </g>
</g>
<g transform="translate(126.12,24.19)">
  <g class="primitive">
    <text text-anchor="middle" dy="0.35em">b61</text>
  </g>
</g>
<g transform="translate(70.71,60.29)">
  <g class="primitive">
    <text text-anchor="middle" dy="0.35em">b62</text>
  </g>
</g>
<g transform="translate(50.45,68.05)">
  <g class="primitive">
    <text text-anchor="middle" dy="0.35em">b63</text>
  </g>
</g>
<g transform="translate(50.45,56.86)">
  <g class="primitive">
    <text text-anchor="middle" dy="0.35em">b64</text>
  </g>
</g>
<g transform="translate(133.15,78.34)">
  <g class="primitive">
    <text text-anchor="middle" dy="0.35em">b65</text>
  </g>
</g>
<g transform="translate(126.12,60.29)">
  <g class="primitive">
    <text text-anchor="middle" dy="0.35em">b66</text>
  </g>
</g>
<g transform="translate(91.8,96.39)">
  <g class="primitive">
    <text text-anchor="middle" dy="0.35em">b67</text>
  </g>
</g>
<g transform="translate(50.45,92.96)">
  <g class="primitive">
    <text text-anchor="middle" dy="0.35em">b68</text>
  </g>
</g>
<g transform="translate(90.97,13.9)">
  <g class="primitive">
    <text text-anchor="middle" dy="0.35em">b69</text>
  </g>
</g>
<g transform="translate(29.36,39.71)">
  <g class="primitive">
    <text text-anchor="middle" dy="0.35em">b70</text>
  </g>
</g>
<g transform="translate(90.97,50)">
  <g class="primitive">
    <text text-anchor="middle" dy="0.35em">b71</text>
  </g>
</g>
<g transform="translate(70.71,46.57)">
  <g class="primitive">
    <text text-anchor="middle" dy="0.35em">b72</text>
  </g>
</g>
<g transform="translate(29.36,75.81)">
  <g class="primitive">
    <text text-anchor="middle" dy="0.35em">b73</text>
  </g>
</g>
<g transform="translate(98,17.33)">
  <g class="primitive">
    <text text-anchor="middle" dy="0.35em">b74</text>
  </g>
</g>
<g transform="translate(90.97,20.76)">
  <g class="primitive">
    <text text-anchor="middle" dy="0.35em">b75</text>
  </g>
</g>
<g transform="translate(43.42,39.71)">
  <g class="primitive">
    <text text-anchor="middle" dy="0.35em">b76</text>
  </g>
</g>
<g transform="translate(36.39,43.14)">
  <g class="primitive">
    <text text-anchor="middle" dy="0.35em">b77</text>
  </g>
</g>
<g transform="translate(105.03,20.76)">
  <g class="primitive">
    <text text-anchor="middle" dy="0.35em">b78</text>
  </g>
</g>
<g transform="translate(98,24.19)">
  <g class="primitive">
    <text text-anchor="middle" dy="0.35em">b79</text>
  </g>
</g>
<g transform="translate(112.06,24.19)">
  <g class="primitive">
    <text text-anchor="middle" dy="0.35em">b80</text>
  </g>
</g>
<g transform="translate(98,53.43)">
  <g class="primitive">
    <text text-anchor="middle" dy="0.35em">b81</text>
  </g>
</g>
<g transform="translate(90.97,56.86)">
  <g class="primitive">
    <text text-anchor="middle" dy="0.35em">b82</text>
  </g>
</g>
<g transform="translate(70.71,53.43)">
  <g class="primitive">
    <text text-anchor="middle" dy="0.35em">b83</text>
  </g>
</g>
<g transform="translate(36.39,79.24)">
  <g class="primitive">
    <text text-anchor="middle" dy="0.35em">b84</text>
  </g>
</g>
<g transform="translate(43.42,75.81)">
  <g class="primitive">
    <text text-anchor="middle" dy="0.35em">b85</text>
  </g>
</g>
<g transform="translate(105.03,56.86)">
  <g class="primitive">
    <text text-anchor="middle" dy="0.35em">b86</text>
  </g>
</g>
<g transform="translate(98,60.29)">
  <g class="primitive">
    <text text-anchor="middle" dy="0.35em">b87</text>
  </g>
</g>
<g transform="translate(112.06,60.29)">
  <g class="primitive">
    <text text-anchor="middle" dy="0.35em">b88</text>
  </g>
</g>
<g transform="translate(43.42,82.67)">
  <g class="primitive">
    <text text-anchor="middle" dy="0.35em">b89</text>
  </g>
</g>
<g transform="translate(50.45,79.24)">
  <g class="primitive">
    <text text-anchor="middle" dy="0.35em">b90</text>
  </g>
</g>
<g transform="translate(50.45,86.1)">
  <g class="primitive">
    <text text-anchor="middle" dy="0.35em">b91</text>
  </g>
</g>
<g transform="translate(50.45,43.14)">
  <g class="primitive">
    <text text-anchor="middle" dy="0.35em">b92</text>
  </g>
</g>
<g transform="translate(43.42,46.57)">
  <g class="primitive">
    <text text-anchor="middle" dy="0.35em">b93</text>
  </g>
</g>
<g transform="translate(50.45,50)">
  <g class="primitive">
    <text text-anchor="middle" dy="0.35em">b94</text>
  </g>
</g>
<g transform="translate(90.97,10.47)">
  <g class="primitive">
    <text text-anchor="middle" dy="0.35em">25</text>
  </g>
</g>
<g transform="translate(22.33,39.71)">
  <g class="primitive">
    <text text-anchor="middle" dy="0.35em">26</text>
  </g>
</g>
<g transform="translate(90.97,46.57)">
  <g class="primitive">
    <text text-anchor="middle" dy="0.35em">27</text>
  </g>
</g>
<g transform="translate(22.33,75.81)">
  <g class="primitive">
    <text text-anchor="middle" dy="0.35em">28</text>
  </g>
</g>
<g transform="translate(90.97,17.33)">
  <g class="primitive">
    <text text-anchor="middle" dy="0.35em">29</text>
  </g>
</g>
<g transform="translate(36.39,39.71)">
  <g class="primitive">
    <text text-anchor="middle" dy="0.35em">30</text>
  </g>
</g>
<g transform="translate(105.03,24.19)">
  <g class="primitive">
    <text text-anchor="middle" dy="0.35em">31</text>
  </g>
</g>
<g transform="translate(105.03,17.33)">
  <g class="primitive">
    <text text-anchor="middle" dy="0.35em">32</text>
  </g>
</g>
<g transform="translate(90.97,53.43)">
  <g class="primitive">
    <text text-anchor="middle" dy="0.35em">33</text>
  </g>
</g>
<g transform="translate(36.39,75.81)">
  <g class="primitive">
    <text text-anchor="middle" dy="0.35em">34</text>
  </g>
</g>
<g transform="translate(105.03,60.29)">
  <g class="primitive">
    <text text-anchor="middle" dy="0.35em">35</text>
  </g>
</g>
<g transform="translate(105.03,53.43)">
  <g class="primitive">
    <text text-anchor="middle" dy="0.35em">36</text>
  </g>
</g>
<g transform="translate(50.45,82.67)">
  <g class="primitive">
    <text text-anchor="middle" dy="0.35em">37</text>
  </g>
</g>
<g transform="translate(36.39,82.67)">
  <g class="primitive">
    <text text-anchor="middle" dy="0.35em">38</text>
  </g>
</g>
<g transform="translate(90.97,24.19)">
  <g class="primitive">
    <text text-anchor="middle" dy="0.35em">39</text>
  </g>
</g>
<g transform="translate(50.45,39.71)">
  <g class="primitive">
    <text text-anchor="middle" dy="0.35em">40</text>
  </g>
</g>
<g transform="translate(119.09,24.19)">
  <g class="primitive">
    <text text-anchor="middle" dy="0.35em">41</text>
  </g>
</g>
<g transform="translate(90.97,60.29)">
  <g class="primitive">
    <text text-anchor="middle" dy="0.35em">42</text>
  </g>
</g>
<g transform="translate(50.45,75.81)">
  <g class="primitive">
    <text text-anchor="middle" dy="0.35em">43</text>
  </g>
</g>
<g transform="translate(119.09,60.29)">
  <g class="primitive">
    <text text-anchor="middle" dy="0.35em">44</text>
  </g>
</g>
<g transform="translate(50.45,89.53)">
  <g class="primitive">
    <text text-anchor="middle" dy="0.35em">45</text>
  </g>
</g>
<g transform="translate(36.39,46.57)">
  <g class="primitive">
    <text text-anchor="middle" dy="0.35em">46</text>
  </g>
</g>
<g transform="translate(50.45,46.57)">
  <g class="primitive">
    <text text-anchor="middle" dy="0.35em">47</text>
  </g>
</g>
<g transform="translate(50.45,53.43)">
  <g class="primitive">
    <text text-anchor="middle" dy="0.35em">48</text>
  </g>
</g>
</svg>
